<?xml version="1.0" ?>
<!-- Uploaded to: SVG Repo, www.svgrepo.com, Generator: SVG Repo Mixer Tools -->
<svg width="800px" height="800px" viewBox="0 0 64 64" id="TwoTone" xmlns="http://www.w3.org/2000/svg">
<title/>
<desc/>
<g data-name="Stroke copy 3" id="Stroke_copy_3">
<path d="M54,47A24,24,0,0,1,32.62,33.89,1.84,1.84,0,0,1,32,34a2,2,0,0,1-.89-3.78A23.91,23.91,0,0,1,30,23V7H23V30.28a2,2,0,0,1,0,3.44V51a4,4,0,0,0,4,4H61V47Z" style="fill:#cff09e"/>
<path d="M27,3H61a0,0,0,0,1,0,0v8a0,0,0,0,1,0,0H27a4,4,0,0,1-4-4V7A4,4,0,0,1,27,3Z" style="fill:#a8dba8"/>
<rect height="8" style="fill:#79bd9a" width="12" x="3" y="37"/>
<rect height="8" style="fill:#cff09e" width="12" x="15" y="37"/>
<rect height="8" style="fill:#cff09e" width="12" x="27" y="37"/>
<rect height="8" style="fill:#cff09e" width="12" x="39" y="37"/>
<rect height="8" style="fill:#cff09e" width="12" x="3" y="45"/>
<rect height="8" style="fill:#cff09e" width="12" x="15" y="45"/>
<rect height="8" style="fill:#cff09e" width="12" x="27" y="45"/>
<rect height="8" style="fill:#79bd9a" width="12" x="39" y="45"/>
<rect height="8" style="fill:#79bd9a" width="12" x="3" y="53"/>
<rect height="8" style="fill:#79bd9a" width="12" x="15" y="53"/>
<rect height="8" style="fill:#79bd9a" width="12" x="27" y="53"/>
<rect height="8" style="fill:#79bd9a" width="12" x="39" y="53"/>
<path d="M3,27V37H51V27Zm9,7a2,2,0,1,1,2-2A2,2,0,0,1,12,34Zm10,0a2,2,0,1,1,2-2A2,2,0,0,1,22,34Zm10,0a2,2,0,1,1,2-2A2,2,0,0,1,32,34Zm10,0a2,2,0,1,1,2-2A2,2,0,0,1,42,34Z" style="fill:#a8dba8"/>
</g>
<g data-name="Stroke Close copy 3" id="Stroke_Close_copy_3">
<path d="M61,2H27a5,5,0,0,0-5,5V21a6,6,0,0,0-5,2.69A6,6,0,0,0,6.09,26H3a1,1,0,0,0-1,1V61a1,1,0,0,0,1,1H51a1,1,0,0,0,1-1V56h9a1,1,0,0,0,1-1V3A1,1,0,0,0,61,2ZM27,4H60V6H42a1,1,0,0,0,0,2H60v2H27a3,3,0,0,1,0-6ZM22,23v3H18.14A4,4,0,0,1,22,23Zm2,.56A4,4,0,0,1,25.86,26H24ZM12,23a4,4,0,0,1,3.86,3H8.14A4,4,0,0,1,12,23ZM4,28H6.09A6,6,0,0,0,12,33a1,1,0,0,0,0-2,4,4,0,0,1-3.86-3h8A6,6,0,0,0,22,33a1,1,0,0,0,0-2,4,4,0,0,1-3.86-3h8A6,6,0,0,0,32,33a1,1,0,0,0,0-2,4,4,0,0,1-3.86-3h8A6,6,0,0,0,42,33a1,1,0,0,0,0-2,4,4,0,0,1-3.86-3H50v8H4Zm24.14-2a4,4,0,0,1,7.72,0Zm10,0a4,4,0,0,1,7.72,0ZM4,52V50H33a1,1,0,0,0,0-2H4V46H38v6ZM50,38v2H21a1,1,0,0,0,0,2H50v2H16V38ZM14,44H4V38H14Zm26,2H50v6H40ZM4,54H14v6H4Zm12,0H26v6H16Zm12,0H38v6H28Zm22,6H40V54H50Zm2-6V27a1,1,0,0,0-1-1H47.91A6,6,0,0,0,37,23.69a6,6,0,0,0-10,0,6,6,0,0,0-3-2.34V11a4.92,4.92,0,0,0,3,1H60V54Z" style="fill:#3b8686"/>
<path d="M29,8h7a1,1,0,0,0,0-2H29a1,1,0,0,0,0,2Z" style="fill:#3b8686"/>
<path d="M55,16a1,1,0,0,0-1-1H34a1,1,0,0,0,0,2H54A1,1,0,0,0,55,16Z" style="fill:#3b8686"/>
<path d="M56,21H51a1,1,0,0,0,0,2h5a1,1,0,0,0,0-2Z" style="fill:#3b8686"/>
</g>
</svg>