<?xml version="1.0" ?>
<!-- Uploaded to: SVG Repo, www.svgrepo.com, Generator: SVG Repo Mixer Tools -->
<svg width="800px" height="800px" viewBox="0 0 64 64" id="TwoTone" xmlns="http://www.w3.org/2000/svg">
<title/>
<desc/>
<g data-name="Stroke copy 3" id="Stroke_copy_3">
<path d="M61,54,32,52,3,54v4l25-1.73a4,4,0,0,0,7.94,0L61,58Z" style="fill:#79bd9a"/>
<path d="M32,49v3l26,2V51L42.67,47.35A14.3,14.3,0,0,0,32,49Z" style="fill:#cff09e"/>
<path d="M21.33,47.35,6,51v3l26-2V49A14.3,14.3,0,0,0,21.33,47.35Z" style="fill:#cff09e"/>
<path d="M23,9V4a4,4,0,0,0-4,4V26a4,4,0,0,0,4,4H41a4,4,0,0,0,4-4V25H39A16,16,0,0,1,23,9Z" style="fill:#cff09e"/>
<polygon points="26 24 26 10 40 17 26 24" style="fill:#79bd9a"/>
</g>
<g data-name="Stroke Close copy 3" id="Stroke_Close_copy_3">
<path d="M61.07,53,59,52.86V48a1,1,0,0,0-.77-1L42.9,43.38A15.15,15.15,0,0,0,32,44.87a15.15,15.15,0,0,0-10.9-1.49L5.77,47A1,1,0,0,0,5,48v4.86L2.93,53A1,1,0,0,0,2,54v4a1,1,0,0,0,.32.73,1,1,0,0,0,.75.27L27.2,57.33a5,5,0,0,0,9.6,0L60.93,59a1,1,0,0,0,.75-.27A1,1,0,0,0,62,58V54A1,1,0,0,0,61.07,53ZM42.44,45.32,57,48.79v3.93L33,51.07V46.58A13.24,13.24,0,0,1,42.44,45.32ZM7,48.79l14.56-3.47A13.24,13.24,0,0,1,31,46.58v4.49L7,52.72Zm53,8.14L36,55.28a1,1,0,0,0-1.07.93,3,3,0,0,1-5.94,0,1,1,0,0,0-1-.94H28L4,56.93v-2l2.07-.14h0L32,53l25.93,1.79h0l2.07.14Z" style="fill:#3b8686"/>
<path d="M23,31H41a5,5,0,0,0,5-5V8a5,5,0,0,0-5-5H23a5,5,0,0,0-5,5V26A5,5,0,0,0,23,31ZM20,8a3,3,0,0,1,3-3H41a3,3,0,0,1,3,3V26a3,3,0,0,1-3,3H23a3,3,0,0,1-3-3Z" style="fill:#3b8686"/>
<path d="M25.47,24.85A1,1,0,0,0,26,25a1,1,0,0,0,.45-.11l14-7a1,1,0,0,0,0-1.78l-14-7A1,1,0,0,0,25,10V24A1,1,0,0,0,25.47,24.85ZM27,11.62,37.76,17,27,22.38Z" style="fill:#3b8686"/>
<path d="M31,35v7a1,1,0,0,0,2,0V35a1,1,0,0,0-2,0Z" style="fill:#3b8686"/>
<path d="M38,33.8l-1,5A1,1,0,0,0,37.8,40l.2,0a1,1,0,0,0,1-.8l1-5a1,1,0,1,0-2-.4Z" style="fill:#3b8686"/>
<path d="M23.8,33A1,1,0,0,0,23,34.2l1,5a1,1,0,0,0,1,.8l.2,0A1,1,0,0,0,26,38.8l-1-5A1,1,0,0,0,23.8,33Z" style="fill:#3b8686"/>
<path d="M42.45,40.83A.94.94,0,0,0,43,41a1,1,0,0,0,.83-.45l6-9a1,1,0,1,0-1.66-1.1l-6,9A1,1,0,0,0,42.45,40.83Z" style="fill:#3b8686"/>
<path d="M19.17,40.55A1,1,0,0,0,20,41a.94.94,0,0,0,.55-.17,1,1,0,0,0,.28-1.38l-6-9a1,1,0,1,0-1.66,1.1Z" style="fill:#3b8686"/>
<path d="M48.2,41.6a1,1,0,0,0,.8.4,1,1,0,0,0,.6-.2l4-3a1,1,0,1,0-1.2-1.6l-4,3A1,1,0,0,0,48.2,41.6Z" style="fill:#3b8686"/>
<path d="M14.4,41.8a1,1,0,0,0,.6.2,1,1,0,0,0,.8-.4,1,1,0,0,0-.2-1.4l-4-3a1,1,0,1,0-1.2,1.6Z" style="fill:#3b8686"/>
</g>
</svg>