<?xml version="1.0" ?>
<!-- Uploaded to: SVG Repo, www.svgrepo.com, Generator: SVG Repo Mixer Tools -->
<svg width="800px" height="800px" viewBox="0 0 64 64" id="TwoTone" xmlns="http://www.w3.org/2000/svg">
<title/>
<desc/>
<g data-name="Stroke copy 3" id="Stroke_copy_3">
<path d="M42,47A24,24,0,0,1,18,23V7H11V51a4,4,0,0,0,4,4H51V47Z" style="fill:#cff09e"/>
<path d="M15,3H51a0,0,0,0,1,0,0v8a0,0,0,0,1,0,0H15a4,4,0,0,1-4-4V7a4,4,0,0,1,4-4Z" style="fill:#a8dba8"/>
<rect height="6" style="fill:#79bd9a" width="22" x="21" y="19"/>
<circle cx="47" cy="47" r="14" style="fill:#a8dba8"/>
</g>
<g data-name="Stroke Close copy 3" id="Stroke_Close_copy_3">
<path d="M17,8H27a1,1,0,0,0,0-2H17a1,1,0,0,0,0,2Z" style="fill:#3b8686"/>
<path d="M52,32.88V3a1,1,0,0,0-1-1H15a5,5,0,0,0-5,5V51a5,5,0,0,0,5,5H35A15,15,0,1,0,52,32.88ZM15,4H50V6H31a1,1,0,0,0,0,2H50v2H15a3,3,0,0,1,0-6Zm0,50a3,3,0,0,1-3-3V11a4.92,4.92,0,0,0,3,1H50V32.3a14.82,14.82,0,0,0-3-.3A15,15,0,0,0,33.74,54Zm32,6A13,13,0,1,1,60,47,13,13,0,0,1,47,60Z" style="fill:#3b8686"/>
<path d="M53.85,41.22,43.24,51.83l-3.53-3.54a1,1,0,0,0-1.42,1.42L42.54,54a1,1,0,0,0,.7.29A1,1,0,0,0,44,54L55.26,42.64a1,1,0,0,0,0-1.42A1,1,0,0,0,53.85,41.22Z" style="fill:#3b8686"/>
<path d="M21,26H43a1,1,0,0,0,1-1V19a1,1,0,0,0-1-1H21a1,1,0,0,0-1,1v6A1,1,0,0,0,21,26Zm1-6H42v4H22Z" style="fill:#3b8686"/>
<path d="M21,32H37a1,1,0,0,0,0-2H21a1,1,0,0,0,0,2Z" style="fill:#3b8686"/>
<path d="M31,36H21a1,1,0,0,0,0,2H31a1,1,0,0,0,0-2Z" style="fill:#3b8686"/>
<path d="M27,42H21a1,1,0,0,0,0,2h6a1,1,0,0,0,0-2Z" style="fill:#3b8686"/>
</g>
</svg>